<svg width="86" height="34" viewBox="0 0 86 34" fill="none" xmlns="http://www.w3.org/2000/svg">
<path d="M13.875 11C13.7031 10.474 13.4766 10.0026 13.1953 9.58594C12.9193 9.16406 12.5885 8.80469 12.2031 8.50781C11.8229 8.21094 11.3906 7.98437 10.9063 7.82812C10.4219 7.67187 9.89063 7.59375 9.3125 7.59375C8.36458 7.59375 7.5026 7.83854 6.72656 8.32812C5.95052 8.81771 5.33333 9.53906 4.875 10.4922C4.41667 11.4453 4.1875 12.6146 4.1875 14C4.1875 15.3854 4.41927 16.5547 4.88281 17.5078C5.34635 18.4609 5.97396 19.1823 6.76563 19.6719C7.55729 20.1615 8.44792 20.4062 9.4375 20.4062C10.3542 20.4062 11.1615 20.2109 11.8594 19.8203C12.5625 19.4245 13.1094 18.8672 13.5 18.1484C13.8958 17.4245 14.0938 16.5729 14.0938 15.5937L14.6875 15.7187H9.875V14H15.9688V15.7187C15.9688 17.0365 15.6875 18.1823 15.125 19.1562C14.5677 20.1302 13.7969 20.8854 12.8125 21.4219C11.8333 21.9531 10.7083 22.2187 9.4375 22.2187C8.02083 22.2187 6.77604 21.8854 5.70313 21.2188C4.63542 20.5521 3.80208 19.6042 3.20313 18.375C2.60938 17.1458 2.3125 15.6875 2.3125 14C2.3125 12.7344 2.48177 11.5964 2.82031 10.5859C3.16406 9.57031 3.64844 8.70573 4.27344 7.99219C4.89844 7.27865 5.63802 6.73177 6.49219 6.35156C7.34635 5.97135 8.28646 5.78125 9.3125 5.78125C10.1563 5.78125 10.9427 5.90885 11.6719 6.16406C12.4063 6.41406 13.0599 6.77083 13.6328 7.23437C14.2109 7.69271 14.6927 8.24219 15.0781 8.88281C15.4635 9.51823 15.7292 10.224 15.875 11H13.875Z" fill="white"/>
<path fill-rule="evenodd" clip-rule="evenodd" d="M19.0449 10.336C18.3824 11.4078 18 12.671 18 14.0235C18 17.9024 21.145 21.047 25.0247 21.047C28.9045 21.047 32.0495 17.9024 32.0495 14.0235C32.0495 11.4685 30.6849 9.23201 28.6446 8.00305C28.4311 8.29775 27.7751 8.57998 27.0591 8.88801C26.2937 9.21728 25.4598 9.57604 25.0247 10.011C24.8283 10.2074 24.7857 10.5575 24.7463 10.8808C24.6852 11.3833 24.6319 11.8209 24.0214 11.5157C23.9114 11.4058 23.8256 11.2958 23.748 11.1964C23.4715 10.8425 23.2998 10.6225 22.5165 11.0142C21.5132 11.5157 23.5746 13.3731 24.0214 13.522C24.2104 13.585 24.3601 13.4553 24.5328 13.3058C24.7684 13.1017 25.0468 12.8606 25.5264 13.0204C27.0313 13.522 29.1764 14.2817 29.0379 15.5283C28.8356 17.3483 26.5297 20.0424 25.0247 20.5439C24.3965 20.5439 24.5885 19.8439 24.8037 19.059C24.9499 18.5257 25.1069 17.9533 25.0247 17.5345C24.9059 16.9292 24.3139 16.7369 23.7347 16.5488C23.1363 16.3545 22.5516 16.1646 22.5165 15.5283C22.4878 15.0096 22.86 14.6554 23.2767 14.2588C23.3569 14.1824 23.4388 14.1045 23.5198 14.0236C23.5695 13.9738 23.256 13.8018 22.7738 13.5373C21.5846 12.885 19.3692 11.6697 19.0449 10.336ZM25.0247 6C20.5929 6 17 9.59217 17 14.0235C17 18.4549 20.5929 22.047 25.0247 22.047C29.4566 22.047 33.0495 18.4549 33.0495 14.0235C33.0495 9.59217 29.4566 6 25.0247 6Z" fill="white"/>
<path d="M42.6875 10C42.5938 9.20833 42.2135 8.59375 41.5469 8.15625C40.8802 7.71875 40.0625 7.5 39.0938 7.5C38.3854 7.5 37.7656 7.61458 37.2344 7.84375C36.7083 8.07292 36.2969 8.38802 36 8.78906C35.7083 9.1901 35.5625 9.64583 35.5625 10.1562C35.5625 10.5833 35.6641 10.9505 35.8672 11.2578C36.0755 11.5599 36.3411 11.8125 36.6641 12.0156C36.987 12.2135 37.3255 12.3776 37.6797 12.5078C38.0339 12.6328 38.3594 12.7344 38.6562 12.8125L40.2813 13.25C40.6979 13.3594 41.1615 13.5104 41.6719 13.7031C42.1875 13.8958 42.6797 14.1589 43.1484 14.4922C43.6224 14.8203 44.013 15.2422 44.3203 15.7578C44.6276 16.2734 44.7813 16.9062 44.7813 17.6562C44.7813 18.5208 44.5547 19.3021 44.1016 20C43.6536 20.6979 42.9974 21.2526 42.1328 21.6641C41.2734 22.0755 40.2292 22.2813 39 22.2813C37.8542 22.2813 36.862 22.0964 36.0234 21.7266C35.1901 21.3568 34.5339 20.8411 34.0547 20.1797C33.5807 19.5182 33.3125 18.75 33.25 17.875H35.25C35.3021 18.4792 35.5052 18.9792 35.8594 19.375C36.2188 19.7656 36.6719 20.0573 37.2188 20.25C37.7708 20.4375 38.3646 20.5312 39 20.5312C39.7396 20.5312 40.4036 20.4115 40.9922 20.1719C41.5807 19.9271 42.0469 19.5885 42.3906 19.1562C42.7344 18.7187 42.9063 18.2083 42.9063 17.625C42.9063 17.0937 42.7578 16.6615 42.4609 16.3281C42.1641 15.9948 41.7734 15.724 41.2891 15.5156C40.8047 15.3073 40.2813 15.125 39.7188 14.9687L37.75 14.4062C36.5 14.0469 35.5104 13.5339 34.7812 12.8672C34.0521 12.2005 33.6875 11.3281 33.6875 10.25C33.6875 9.35417 33.9297 8.57292 34.4141 7.90625C34.9036 7.23437 35.5599 6.71354 36.3828 6.34375C37.2109 5.96875 38.1354 5.78125 39.1563 5.78125C40.1875 5.78125 41.1042 5.96615 41.9063 6.33594C42.7083 6.70052 43.3438 7.20052 43.8125 7.83594C44.2865 8.47135 44.5365 9.19271 44.5625 10H42.6875ZM47.9668 22V6H57.623V7.71875H49.9043V13.125H57.123V14.8437H49.9043V20.2812H57.748V22H47.9668Z" fill="white"/>
<path d="M5.48295 25.5085V24.7273H10.9375V25.5085H8.65057V32H7.76989V25.5085H5.48295ZM18.1303 28.3636C18.1303 29.1307 17.9918 29.7936 17.7148 30.3523C17.4379 30.911 17.0579 31.3419 16.5749 31.6449C16.092 31.9479 15.5404 32.0994 14.9201 32.0994C14.2998 32.0994 13.7482 31.9479 13.2653 31.6449C12.7823 31.3419 12.4023 30.911 12.1254 30.3523C11.8484 29.7936 11.7099 29.1307 11.7099 28.3636C11.7099 27.5966 11.8484 26.9337 12.1254 26.375C12.4023 25.8163 12.7823 25.3854 13.2653 25.0824C13.7482 24.7794 14.2998 24.6278 14.9201 24.6278C15.5404 24.6278 16.092 24.7794 16.5749 25.0824C17.0579 25.3854 17.4379 25.8163 17.7148 26.375C17.9918 26.9337 18.1303 27.5966 18.1303 28.3636ZM17.2781 28.3636C17.2781 27.7339 17.1727 27.2024 16.962 26.7692C16.7537 26.3359 16.4708 26.008 16.1133 25.7855C15.7582 25.563 15.3604 25.4517 14.9201 25.4517C14.4798 25.4517 14.0808 25.563 13.7234 25.7855C13.3683 26.008 13.0853 26.3359 12.8746 26.7692C12.6663 27.2024 12.5621 27.7339 12.5621 28.3636C12.5621 28.9934 12.6663 29.5249 12.8746 29.9581C13.0853 30.3913 13.3683 30.7192 13.7234 30.9418C14.0808 31.1643 14.4798 31.2756 14.9201 31.2756C15.3604 31.2756 15.7582 31.1643 16.1133 30.9418C16.4708 30.7192 16.7537 30.3913 16.962 29.9581C17.1727 29.5249 17.2781 28.9934 17.2781 28.3636ZM22.0259 25.5085V24.7273H27.4805V25.5085H25.1935V32H24.3129V25.5085H22.0259ZM28.8397 32V24.7273H31.2971C31.8652 24.7273 32.3316 24.8243 32.6962 25.0185C33.0608 25.2102 33.3307 25.4742 33.5059 25.8104C33.681 26.1465 33.7686 26.5289 33.7686 26.9574C33.7686 27.3859 33.681 27.7659 33.5059 28.0973C33.3307 28.4287 33.062 28.6892 32.6998 28.8786C32.3375 29.0656 31.8747 29.1591 31.3113 29.1591H29.3226V28.3636H31.2828C31.6711 28.3636 31.9836 28.3068 32.2203 28.1932C32.4595 28.0795 32.6323 27.9186 32.7388 27.7102C32.8477 27.4995 32.9022 27.2486 32.9022 26.9574C32.9022 26.6662 32.8477 26.4117 32.7388 26.1939C32.6299 25.9761 32.4559 25.808 32.2168 25.6896C31.9777 25.5689 31.6616 25.5085 31.2686 25.5085H29.7203V32H28.8397ZM32.263 28.733L34.0527 32H33.03L31.2686 28.733H32.263ZM35.5344 32H34.6112L37.2816 24.7273H38.1907L40.8612 32H39.9379L37.7646 25.8778H37.7077L35.5344 32ZM35.8754 29.1591H39.5969V29.9403H35.8754V29.1591ZM41.6087 24.7273L43.7678 30.8494H43.853L46.0121 24.7273H46.9354L44.2649 32H43.3558L40.6854 24.7273H41.6087ZM48.0682 32V24.7273H52.4574V25.5085H48.9489V27.9659H52.2301V28.7472H48.9489V31.2188H52.5142V32H48.0682ZM54.0447 32V24.7273H54.9254V31.2188H58.3061V32H54.0447Z" fill="white"/>
</svg>

